# xmcd
#
# Track frame offsets:
#	150
#	15149
#	28855
#	42637
#	60093
#	75136
#	88234
#	101279
#	115472
#	129687
#	143677
#	158146
#	175378
#	191095
#	204368
#
# Disc length: 2914 seconds
#
# Revision: 0
# Processed by: cddbd v1.5.2PL0 Copyright (c) Steve Scherf et al.
# Submitted via: audiograbber 1.83.01
#
DISCID=bb0b600f
DTITLE=Don Williams - CB90327
DYEAR=1900
DGENRE=Country
TTITLE0=Don Williams - We Should Be Together
TTITLE1=Don Williams - You're My Best riend
TTITLE2=Don Williams - She Never Knew Me
TTITLE3=Don Williams - il The River Runs Dry
TTITLE4=Don Williams - Say It Again
TTITLE5=Don Williams - I've Got A Winner In You
TTITLE6=Don Williams - Ties That B ind
TTITLE7=Don Williams - Rake AndRamblin' Man
TTITLE8=Don Williams - Lay Down Beside Me
TTITLE9=Don Williams - Falling Again
TTITLE10=Don Williams - Miracles
TTITLE11=Don Williams - If I Needed You
TTITLE12=Don Williams - Listen To The Radio
TTITLE13=Don Williams - Nobody But You
TTITLE14=Don Williams - Lord Have Mercy On A C ountry Boy
EXTD=
EXTT0=
EXTT1=
EXTT2=
EXTT3=
EXTT4=
EXTT5=
EXTT6=
EXTT7=
EXTT8=
EXTT9=
EXTT10=
EXTT11=
EXTT12=
EXTT13=
EXTT14=
PLAYORDER=
